<?xml version="1.0" encoding="UTF-8"?>
<!DOCTYPE svg PUBLIC "-//W3C//DTD SVG 1.1//EN" "http://www.w3.org/Graphics/SVG/1.1/DTD/svg11.dtd">
<svg xmlns="http://www.w3.org/2000/svg" version="1.1" width="375px" height="375px" style="shape-rendering:geometricPrecision; text-rendering:geometricPrecision; image-rendering:optimizeQuality; fill-rule:evenodd; clip-rule:evenodd" xmlns:xlink="http://www.w3.org/1999/xlink">
<g><path style="opacity:0.878" fill="#dde0e4" d="M 105.5,48.5 C 129.003,47.1712 152.67,47.1712 176.5,48.5C 179.169,55.5096 181.836,62.5096 184.5,69.5C 185.167,66.0227 185.834,62.6893 186.5,59.5C 186.5,66.5 186.5,73.5 186.5,80.5C 186.167,80.5 185.833,80.5 185.5,80.5C 182.131,70.2258 178.464,60.0592 174.5,50C 152.169,49.5 129.836,49.3334 107.5,49.5C 107.158,48.6618 106.492,48.3284 105.5,48.5 Z"/></g>
<g><path style="opacity:1" fill="#fdfdfd" d="M 107.5,49.5 C 129.836,49.3334 152.169,49.5 174.5,50C 178.464,60.0592 182.131,70.2258 185.5,80.5C 185.757,88.6384 188.424,95.6384 193.5,101.5C 194.434,102.568 194.768,103.901 194.5,105.5C 195.764,110.715 197.431,115.715 199.5,120.5C 201.693,122.522 202.693,125.189 202.5,128.5C 202.977,135.642 205.311,141.976 209.5,147.5C 209.833,147.5 210.167,147.5 210.5,147.5C 210.882,151.446 211.882,155.112 213.5,158.5C 213.999,163.669 215.666,168.336 218.5,172.5C 219.434,173.568 219.768,174.901 219.5,176.5C 220.129,179.397 221.129,182.064 222.5,184.5C 224.08,189.275 225.746,193.942 227.5,198.5C 228.792,203.382 230.459,208.048 232.5,212.5C 232.833,214.5 233.167,216.5 233.5,218.5C 233.77,222.358 235.103,225.691 237.5,228.5C 237.5,229.167 237.833,229.5 238.5,229.5C 238.875,231.698 239.542,233.698 240.5,235.5C 240.345,238.716 241.345,241.383 243.5,243.5C 243.5,244.167 243.5,244.833 243.5,245.5C 244.932,251.141 246.932,256.475 249.5,261.5C 249.5,261.833 249.5,262.167 249.5,262.5C 249.89,265.839 250.39,269.173 251,272.5C 251.708,273.381 252.542,274.047 253.5,274.5C 254.083,277.947 255.416,280.947 257.5,283.5C 257.5,283.833 257.5,284.167 257.5,284.5C 257.98,287.443 258.98,290.11 260.5,292.5C 260.5,292.833 260.5,293.167 260.5,293.5C 261.025,297.533 262.358,301.2 264.5,304.5C 265.101,307.968 266.101,311.301 267.5,314.5C 243.824,314.833 220.157,314.5 196.5,313.5C 191.654,298.46 186.321,283.626 180.5,269C 153.835,268.5 127.169,268.333 100.5,268.5C 95.5,283.833 90.5,299.167 85.5,314.5C 61.8239,314.833 38.1573,314.5 14.5,313.5C 15.8378,309.154 17.1711,304.821 18.5,300.5C 48.3308,216.815 77.9975,133.148 107.5,49.5 Z M 120.5,206.5 C 120.5,205.833 120.5,205.167 120.5,204.5C 127.597,183.373 134.43,162.039 141,140.5C 148.8,162.733 156.3,185.067 163.5,207.5C 156.333,207.833 149.167,208.167 142,208.5C 134.467,208.497 127.301,207.831 120.5,206.5 Z"/></g>
<g><path style="opacity:1" fill="#0fa6ee" d="M 252.5,60.5 C 253.499,122.664 253.832,184.998 253.5,247.5C 250.431,247.037 249.931,245.704 252,243.5C 252.5,182.501 252.667,121.501 252.5,60.5 Z"/></g>
<g><path style="opacity:0.869" fill="#4fa8d8" d="M 187.5,55.5 C 187.833,55.5 188.167,55.5 188.5,55.5C 187.262,63.8833 187.262,72.2166 188.5,80.5C 188.5,82.5 188.5,84.5 188.5,86.5C 187.542,84.6976 186.875,82.6976 186.5,80.5C 186.5,73.5 186.5,66.5 186.5,59.5C 186.232,57.901 186.566,56.5676 187.5,55.5 Z"/></g>
<g><path style="opacity:0.62" fill="#78acc8" d="M 252.5,56.5 C 253.268,57.2625 253.768,58.2625 254,59.5C 254.167,122.001 254.667,184.335 255.5,246.5C 288.338,246.168 321.004,246.502 353.5,247.5C 321.5,247.5 289.5,247.5 257.5,247.5C 256.167,247.5 254.833,247.5 253.5,247.5C 253.832,184.998 253.499,122.664 252.5,60.5C 252.5,59.1667 252.5,57.8333 252.5,56.5 Z"/></g>
<g><path style="opacity:1" fill="#daf6fc" d="M 185.5,80.5 C 185.833,80.5 186.167,80.5 186.5,80.5C 186.875,82.6976 187.542,84.6976 188.5,86.5C 190.003,91.4934 191.67,96.4934 193.5,101.5C 188.424,95.6384 185.757,88.6384 185.5,80.5 Z"/></g>
<g><path style="opacity:0.145" fill="#dde0e2" d="M 255.5,245.5 C 255.5,245.833 255.5,246.167 255.5,246.5C 254.667,184.335 254.167,122.001 254,59.5C 253.768,58.2625 253.268,57.2625 252.5,56.5C 252.5,55.8333 252.167,55.5 251.5,55.5C 251.489,53.9826 250.823,52.8159 249.5,52C 247.5,51 245.5,50 243.5,49C 227.833,48.3333 212.167,48.3333 196.5,49C 193.405,49.9354 191.071,51.7687 189.5,54.5C 188.833,54.5 188.5,54.8333 188.5,55.5C 188.167,55.5 187.833,55.5 187.5,55.5C 188.989,51.8467 191.656,49.3467 195.5,48C 211.833,47.3333 228.167,47.3333 244.5,48C 248.843,49.0095 252.01,51.5095 254,55.5C 255.489,118.775 255.989,182.108 255.5,245.5 Z"/></g>
<g><path style="opacity:1" fill="#309fde" d="M 251.5,55.5 C 248.823,52.6637 245.49,51.1637 241.5,51C 226.5,50.3333 211.5,50.3333 196.5,51C 194.03,51.9888 191.697,53.1554 189.5,54.5C 191.071,51.7687 193.405,49.9354 196.5,49C 212.167,48.3333 227.833,48.3333 243.5,49C 245.5,50 247.5,51 249.5,52C 250.823,52.8159 251.489,53.9826 251.5,55.5 Z"/></g>
<g><path style="opacity:1" fill="#29aaf0" d="M 188.5,80.5 C 192.448,90.8301 195.781,101.497 198.5,112.5C 197.167,110.167 195.833,107.833 194.5,105.5C 194.768,103.901 194.434,102.568 193.5,101.5C 191.67,96.4934 190.003,91.4934 188.5,86.5C 188.5,84.5 188.5,82.5 188.5,80.5 Z"/></g>
<g><path style="opacity:1" fill="#c6f1fc" d="M 194.5,105.5 C 195.833,107.833 197.167,110.167 198.5,112.5C 198.5,113.167 198.5,113.833 198.5,114.5C 199.15,116.435 199.483,118.435 199.5,120.5C 197.431,115.715 195.764,110.715 194.5,105.5 Z"/></g>
<g><path style="opacity:1" fill="#38afed" d="M 198.5,114.5 C 202.731,119.224 204.731,124.89 204.5,131.5C 203.833,130.5 203.167,129.5 202.5,128.5C 202.693,125.189 201.693,122.522 199.5,120.5C 199.483,118.435 199.15,116.435 198.5,114.5 Z"/></g>
<g><path style="opacity:0.773" fill="#d7d8d9" d="M 105.5,48.5 C 106.492,48.3284 107.158,48.6618 107.5,49.5C 77.9975,133.148 48.3308,216.815 18.5,300.5C 18.1667,300.5 17.8333,300.5 17.5,300.5C 46.6339,216.432 75.9672,132.432 105.5,48.5 Z"/></g>
<g><path style="opacity:1" fill="#c7f1fd" d="M 202.5,128.5 C 203.167,129.5 203.833,130.5 204.5,131.5C 206.178,136.849 207.845,142.183 209.5,147.5C 205.311,141.976 202.977,135.642 202.5,128.5 Z"/></g>
<g><path style="opacity:1" fill="#2dabf0" d="M 204.5,131.5 C 206.451,132.716 207.951,134.382 209,136.5C 209.719,140.145 210.219,143.812 210.5,147.5C 210.167,147.5 209.833,147.5 209.5,147.5C 207.845,142.183 206.178,136.849 204.5,131.5 Z"/></g>
<g><path style="opacity:1" fill="#42b1ee" d="M 210.5,147.5 C 211.933,150.038 213.266,152.705 214.5,155.5C 215.466,157.396 215.799,159.396 215.5,161.5C 214.833,160.5 214.167,159.5 213.5,158.5C 211.882,155.112 210.882,151.446 210.5,147.5 Z"/></g>
<g><path style="opacity:1" fill="#98dff8" d="M 213.5,158.5 C 214.167,159.5 214.833,160.5 215.5,161.5C 216.699,165.099 217.699,168.765 218.5,172.5C 215.666,168.336 213.999,163.669 213.5,158.5 Z"/></g>
<g><path style="opacity:0.706" fill="#d8d9db" d="M 165.5,207.5 C 150.408,209.46 135.075,210.126 119.5,209.5C 119.263,208.209 119.596,207.209 120.5,206.5C 127.301,207.831 134.467,208.497 142,208.5C 149.167,208.167 156.333,207.833 163.5,207.5C 156.3,185.067 148.8,162.733 141,140.5C 134.43,162.039 127.597,183.373 120.5,204.5C 120.672,203.508 120.338,202.842 119.5,202.5C 125.883,180.303 132.883,158.303 140.5,136.5C 141.086,136.709 141.586,137.043 142,137.5C 149.746,160.905 157.579,184.238 165.5,207.5 Z"/></g>
<g><path style="opacity:1" fill="#7ccdf2" d="M 219.5,176.5 C 221.655,178.617 222.655,181.284 222.5,184.5C 221.129,182.064 220.129,179.397 219.5,176.5 Z"/></g>
<g><path style="opacity:1" fill="#5bbbf0" d="M 222.5,184.5 C 225.985,188.399 227.652,193.066 227.5,198.5C 225.746,193.942 224.08,189.275 222.5,184.5 Z"/></g>
<g><path style="opacity:1" fill="#50b7ec" d="M 227.5,198.5 C 230.88,202.457 232.546,207.124 232.5,212.5C 230.459,208.048 228.792,203.382 227.5,198.5 Z"/></g>
<g><path style="opacity:0.597" fill="#c4c5c8" d="M 119.5,202.5 C 120.338,202.842 120.672,203.508 120.5,204.5C 120.5,205.167 120.5,205.833 120.5,206.5C 119.596,207.209 119.263,208.209 119.5,209.5C 135.075,210.126 150.408,209.46 165.5,207.5C 165.5,208.5 165.5,209.5 165.5,210.5C 149.486,210.833 133.486,210.499 117.5,209.5C 118.17,207.137 118.837,204.804 119.5,202.5 Z"/></g>
<g><path style="opacity:1" fill="#5cbded" d="M 232.5,212.5 C 235.858,217.55 237.858,223.217 238.5,229.5C 237.833,229.5 237.5,229.167 237.5,228.5C 236.733,224.851 235.4,221.518 233.5,218.5C 233.167,216.5 232.833,214.5 232.5,212.5 Z"/></g>
<g><path style="opacity:1" fill="#d9fbfe" d="M 233.5,218.5 C 235.4,221.518 236.733,224.851 237.5,228.5C 235.103,225.691 233.77,222.358 233.5,218.5 Z"/></g>
<g><path style="opacity:1" fill="#96dbf6" d="M 240.5,235.5 C 242.02,237.89 243.02,240.557 243.5,243.5C 241.345,241.383 240.345,238.716 240.5,235.5 Z"/></g>
<g><path style="opacity:1" fill="#03a8fe" d="M 251.5,55.5 C 252.167,55.5 252.5,55.8333 252.5,56.5C 252.5,57.8333 252.5,59.1667 252.5,60.5C 252.667,121.501 252.5,182.501 252,243.5C 249.931,245.704 250.431,247.037 253.5,247.5C 254.833,247.5 256.167,247.5 257.5,247.5C 289.664,248.332 321.997,248.832 354.5,249C 354.167,249.333 353.833,249.667 353.5,250C 356.168,250.567 358.834,251.067 361.5,251.5C 362.167,251.5 362.5,251.833 362.5,252.5C 364.797,270.346 365.131,288.346 363.5,306.5C 363.672,307.492 363.338,308.158 362.5,308.5C 361.5,308.5 360.5,308.5 359.5,308.5C 359.715,310.179 359.048,311.179 357.5,311.5C 356.183,311.179 354.849,310.846 353.5,310.5C 351.618,311.531 349.618,312.365 347.5,313C 323.167,313.667 298.833,313.667 274.5,313C 272.667,312.5 271.5,311.333 271,309.5C 270.506,311.134 270.34,312.801 270.5,314.5C 269.624,314.631 268.957,314.298 268.5,313.5C 267.605,310.154 266.271,307.154 264.5,304.5C 263.935,300.463 262.601,296.797 260.5,293.5C 260.5,293.167 260.5,292.833 260.5,292.5C 260.977,289.083 259.977,286.416 257.5,284.5C 257.5,284.167 257.5,283.833 257.5,283.5C 256.917,280.053 255.584,277.053 253.5,274.5C 253.139,270.085 251.806,266.085 249.5,262.5C 249.5,262.167 249.5,261.833 249.5,261.5C 248.316,256.446 246.816,251.446 245,246.5C 244.617,245.944 244.117,245.611 243.5,245.5C 243.5,244.833 243.5,244.167 243.5,243.5C 243.02,240.557 242.02,237.89 240.5,235.5C 239.542,233.698 238.875,231.698 238.5,229.5C 237.858,223.217 235.858,217.55 232.5,212.5C 232.546,207.124 230.88,202.457 227.5,198.5C 227.652,193.066 225.985,188.399 222.5,184.5C 222.655,181.284 221.655,178.617 219.5,176.5C 219.768,174.901 219.434,173.568 218.5,172.5C 217.699,168.765 216.699,165.099 215.5,161.5C 215.799,159.396 215.466,157.396 214.5,155.5C 213.266,152.705 211.933,150.038 210.5,147.5C 210.219,143.812 209.719,140.145 209,136.5C 207.951,134.382 206.451,132.716 204.5,131.5C 204.731,124.89 202.731,119.224 198.5,114.5C 198.5,113.833 198.5,113.167 198.5,112.5C 195.781,101.497 192.448,90.8301 188.5,80.5C 187.262,72.2166 187.262,63.8833 188.5,55.5C 188.5,54.8333 188.833,54.5 189.5,54.5C 191.697,53.1554 194.03,51.9888 196.5,51C 211.5,50.3333 226.5,50.3333 241.5,51C 245.49,51.1637 248.823,52.6637 251.5,55.5 Z"/></g>
<g><path style="opacity:0.047" fill="#edeff1" d="M 255.5,246.5 C 255.5,246.167 255.5,245.833 255.5,245.5C 288.502,245.333 321.502,245.5 354.5,246C 363.315,248.167 367.315,253.667 366.5,262.5C 366.167,262.5 365.833,262.5 365.5,262.5C 365.605,258.742 364.605,255.408 362.5,252.5C 362.5,251.833 362.167,251.5 361.5,251.5C 359.388,249.229 356.721,247.896 353.5,247.5C 321.004,246.502 288.338,246.168 255.5,246.5 Z"/></g>
<g><path style="opacity:1" fill="#89d6f4" d="M 243.5,245.5 C 244.117,245.611 244.617,245.944 245,246.5C 246.816,251.446 248.316,256.446 249.5,261.5C 246.932,256.475 244.932,251.141 243.5,245.5 Z"/></g>
<g><path style="opacity:1" fill="#1d9be5" d="M 257.5,247.5 C 289.5,247.5 321.5,247.5 353.5,247.5C 356.721,247.896 359.388,249.229 361.5,251.5C 358.834,251.067 356.168,250.567 353.5,250C 353.833,249.667 354.167,249.333 354.5,249C 321.997,248.832 289.664,248.332 257.5,247.5 Z"/></g>
<g><path style="opacity:0.917" fill="#2b9ede" d="M 362.5,252.5 C 364.605,255.408 365.605,258.742 365.5,262.5C 365.667,276.504 365.5,290.504 365,304.5C 364.722,305.416 364.222,306.082 363.5,306.5C 365.131,288.346 364.797,270.346 362.5,252.5 Z"/></g>
<g><path style="opacity:1" fill="#ccf3fd" d="M 249.5,262.5 C 251.806,266.085 253.139,270.085 253.5,274.5C 252.542,274.047 251.708,273.381 251,272.5C 250.39,269.173 249.89,265.839 249.5,262.5 Z"/></g>
<g><path style="opacity:1" fill="#8dd6f7" d="M 253.5,274.5 C 255.584,277.053 256.917,280.053 257.5,283.5C 255.416,280.947 254.083,277.947 253.5,274.5 Z"/></g>
<g><path style="opacity:0.329" fill="#b2c0c8" d="M 365.5,262.5 C 365.833,262.5 366.167,262.5 366.5,262.5C 366.667,276.837 366.5,291.171 366,305.5C 365.303,307.584 364.136,309.251 362.5,310.5C 362.5,309.833 362.5,309.167 362.5,308.5C 363.338,308.158 363.672,307.492 363.5,306.5C 364.222,306.082 364.722,305.416 365,304.5C 365.5,290.504 365.667,276.504 365.5,262.5 Z"/></g>
<g><path style="opacity:1" fill="#5bbdf1" d="M 257.5,284.5 C 259.977,286.416 260.977,289.083 260.5,292.5C 258.98,290.11 257.98,287.443 257.5,284.5 Z"/></g>
<g><path style="opacity:1" fill="#96dbf7" d="M 260.5,293.5 C 262.601,296.797 263.935,300.463 264.5,304.5C 262.358,301.2 261.025,297.533 260.5,293.5 Z"/></g>
<g><path style="opacity:1" fill="#67abd8" d="M 362.5,308.5 C 362.5,309.167 362.5,309.833 362.5,310.5C 361.198,312.822 359.198,314.155 356.5,314.5C 356.557,313.391 356.89,312.391 357.5,311.5C 359.048,311.179 359.715,310.179 359.5,308.5C 360.5,308.5 361.5,308.5 362.5,308.5 Z"/></g>
<g><path style="opacity:1" fill="#5eaed9" d="M 264.5,304.5 C 266.271,307.154 267.605,310.154 268.5,313.5C 268.957,314.298 269.624,314.631 270.5,314.5C 299.167,314.5 327.833,314.5 356.5,314.5C 327.005,315.498 297.338,315.831 267.5,315.5C 267.5,315.167 267.5,314.833 267.5,314.5C 266.101,311.301 265.101,307.968 264.5,304.5 Z"/></g>
<g><path style="opacity:0.992" fill="#0ea4f2" d="M 357.5,311.5 C 356.89,312.391 356.557,313.391 356.5,314.5C 327.833,314.5 299.167,314.5 270.5,314.5C 270.34,312.801 270.506,311.134 271,309.5C 271.5,311.333 272.667,312.5 274.5,313C 298.833,313.667 323.167,313.667 347.5,313C 349.618,312.365 351.618,311.531 353.5,310.5C 354.849,310.846 356.183,311.179 357.5,311.5 Z"/></g>
<g><path style="opacity:0.765" fill="#cfd1d3" d="M 267.5,314.5 C 267.5,314.833 267.5,315.167 267.5,315.5C 243.167,315.5 218.833,315.5 194.5,315.5C 190.217,300.1 185.217,284.933 179.5,270C 153.835,269.5 128.169,269.333 102.5,269.5C 97.5,284.833 92.5,300.167 87.5,315.5C 62.5,315.5 37.5,315.5 12.5,315.5C 13.5889,310.233 15.2556,305.233 17.5,300.5C 17.8333,300.5 18.1667,300.5 18.5,300.5C 17.1711,304.821 15.8378,309.154 14.5,313.5C 38.1573,314.5 61.8239,314.833 85.5,314.5C 90.5,299.167 95.5,283.833 100.5,268.5C 127.169,268.333 153.835,268.5 180.5,269C 186.321,283.626 191.654,298.46 196.5,313.5C 220.157,314.5 243.824,314.833 267.5,314.5 Z"/></g>
</svg>
